<?xml version="1.0" standalone="no"?><!DOCTYPE svg PUBLIC "-//W3C//DTD SVG 1.1//EN" "http://www.w3.org/Graphics/SVG/1.1/DTD/svg11.dtd"><svg t="1670042999676" class="icon" viewBox="0 0 1024 1024" version="1.1" xmlns="http://www.w3.org/2000/svg" p-id="2428" xmlns:xlink="http://www.w3.org/1999/xlink" width="200" height="200"><path d="M64 89.173333c38.4 38.826667 101.12 69.973333 178.773333 92.16A423.253333 423.253333 0 0 1 512 85.333333c101.973333 0 195.84 35.84 269.226667 96C858.88 159.146667 921.6 128 960 89.173333c-1.28 69.546667-36.266667 133.12-94.72 183.893334A421.973333 421.973333 0 0 1 938.666667 512a426.666667 426.666667 0 0 1-426.666667 426.666667A426.666667 426.666667 0 0 1 85.333333 512c0-88.746667 26.88-170.666667 73.386667-238.933333C100.266667 222.293333 65.28 158.72 64 89.173333M853.333333 512a341.333333 341.333333 0 0 0-341.333333-341.333333 341.333333 341.333333 0 0 0-341.333333 341.333333 341.333333 341.333333 0 0 0 341.333333 341.333333 341.333333 341.333333 0 0 0 341.333333-341.333333m-405.333333-85.333333c0 34.133333-29.866667 64-64 64s-64-29.866667-64-64V362.666667l128 64m256 0c0 34.133333-29.866667 64-64 64s-64-29.866667-64-64l128-64V426.666667M512 735.146667c-74.666667 0-140.373333-31.146667-178.773333-77.226667L393.813333 597.333333c19.2 30.72 64.853333 52.48 118.186667 52.48s98.986667-21.76 118.186667-52.48l60.586666 60.586667c-38.4 46.08-104.106667 77.226667-178.773333 77.226667z" fill="" p-id="2429"></path></svg>