<?xml version="1.0" standalone="no"?><!DOCTYPE svg PUBLIC "-//W3C//DTD SVG 1.1//EN" "http://www.w3.org/Graphics/SVG/1.1/DTD/svg11.dtd"><svg class="icon" width="200px" height="200.00px" viewBox="0 0 1024 1024" version="1.1" xmlns="http://www.w3.org/2000/svg"><path fill="#333333" d="M207.2 705.6c-54.4 0-105.6-20.8-144-59.2C24.8 608 3.2 556.8 3.2 502.4c0-75.2 41.6-144 108-179.2-4-15.2-5.6-31.2-5.6-47.2 0-54.4 20.8-105.6 59.2-144 38.4-38.4 89.6-60 144-60 15.2 0 30.4 1.6 45.6 4.8C410.4 29.6 481.6 3.2 555.2 3.2c109.6 0 210.4 57.6 266.4 151.2 90.4 12.8 157.6 88.8 157.6 181.6 0 12.8-1.6 25.6-4 39.2 28.8 36 44 80.8 44 126.4 0 54.4-20.8 105.6-59.2 144-38.4 38.4-89.6 60-144 60h-44.8c-8.8 0-16-7.2-16-16s7.2-16 16-16h44.8c45.6 0 88.8-17.6 121.6-50.4 32-32.8 50.4-75.2 50.4-121.6 0-40.8-15.2-80.8-41.6-112-3.2-4-4.8-9.6-3.2-14.4 3.2-12.8 5.6-26.4 5.6-39.2 0-78.4-59.2-143.2-136.8-150.4-5.6-0.8-9.6-3.2-12.8-8C749.6 90.4 656 36 556 36c-68.8 0-134.4 24.8-185.6 71.2-4 4-9.6 4.8-15.2 3.2-15.2-4-30.4-6.4-45.6-6.4-45.6 0-88.8 17.6-121.6 50.4-32 32.8-50.4 75.2-50.4 121.6 0 17.6 2.4 34.4 8 50.4 2.4 8-1.6 16-8.8 19.2C76 373.6 36 434.4 36 502.4c0 45.6 17.6 88.8 50.4 121.6 32 32 75.2 50.4 121.6 50.4h40c8.8 0 16 7.2 16 16s-7.2 16-16 16h-40.8v-0.8zM772 548.8H248c-4.8 0-8-3.2-8-8v-160c0-4.8 3.2-8 8-8h523.2c4.8 0 8 3.2 8 8v160c0.8 4-3.2 8-7.2 8z m-516-16h507.2v-144H256v144zM772 788.8H248c-8.8 0-16-7.2-16-16v-160c0-8.8 7.2-16 16-16h523.2c8.8 0 16 7.2 16 16v160c0.8 8.8-6.4 16-15.2 16z m-508-32h491.2v-128H264v128zM772 1020H248c-8.8 0-16-7.2-16-16v-160c0-8.8 7.2-16 16-16h523.2c8.8 0 16 7.2 16 16v160c0.8 8.8-6.4 16-15.2 16z m-508-32h491.2v-128H264v128zM705.6 700.8H604c-4.8 0-8-3.2-8-8s3.2-8 8-8h100.8c4.8 0 8 3.2 8 8s-3.2 8-7.2 8zM352.8 700.8h-38.4c-4.8 0-8-3.2-8-8s3.2-8 8-8h38.4c4.8 0 8 3.2 8 8s-3.2 8-8 8zM705.6 468.8H604c-4.8 0-8-3.2-8-8s3.2-8 8-8h100.8c4.8 0 8 3.2 8 8 0.8 4.8-3.2 8-7.2 8zM352.8 468.8h-38.4c-4.8 0-8-3.2-8-8s3.2-8 8-8h38.4c4.8 0 8 3.2 8 8s-3.2 8-8 8zM705.6 932.8H604c-4.8 0-8-3.2-8-8s3.2-8 8-8h100.8c4.8 0 8 3.2 8 8 0.8 4-3.2 8-7.2 8zM352.8 932.8h-38.4c-4.8 0-8-3.2-8-8s3.2-8 8-8h38.4c4.8 0 8 3.2 8 8 0 4-3.2 8-8 8z" /></svg>