<?xml version="1.0" standalone="no"?><!DOCTYPE svg PUBLIC "-//W3C//DTD SVG 1.1//EN" "http://www.w3.org/Graphics/SVG/1.1/DTD/svg11.dtd"><svg class="icon" width="200px" height="196.36px" viewBox="0 0 1043 1024" version="1.1" xmlns="http://www.w3.org/2000/svg"><path fill="#333333" d="M319.878095 1014.247619c-103.375238-17.554286-214.552381-59.489524-240.883809-91.672381-18.529524-21.455238 1.950476-50.712381 39.984762-58.514286 59.489524-11.702857 59.489524-17.554286 7.801904-73.142857-26.331429-28.281905-62.415238-80.944762-79.969523-116.053333-31.207619-62.415238-32.182857-70.217143-32.182858-178.468572V383.268571l42.910477-85.820952C151.161905 109.226667 322.80381 0 526.628571 0c147.260952 0 250.63619 42.910476 356.937143 150.186667 106.300952 106.300952 150.186667 213.577143 150.186667 367.664762 0 239.908571-147.260952 426.179048-386.194286 486.643809-78.994286 20.48-236.007619 25.35619-327.68 9.752381z m297.447619-411.550476c8.777143-6.826667 24.380952-44.860952 35.108572-82.895238 18.529524-67.291429 18.529524-71.192381 1.950476-91.672381-12.678095-16.579048-23.405714-19.504762-41.935238-15.60381-21.455238 5.851429-28.281905 16.579048-45.836191 82.895238-24.380952 91.672381-24.380952 84.845714-4.87619 103.375238 18.529524 18.529524 34.133333 19.504762 55.588571 3.900953z m211.626667 1.950476c19.504762-9.752381 52.662857-128.731429 46.811429-166.765714-1.950476-18.529524-9.752381-24.380952-34.133334-26.331429-36.08381-3.900952-40.96 2.925714-66.31619 99.474286l-17.554286 67.291428 22.430476 18.529524c25.35619 20.48 25.35619 20.48 48.761905 7.801905z" /></svg>