<?xml version="1.0" standalone="no"?><!DOCTYPE svg PUBLIC "-//W3C//DTD SVG 1.1//EN" "http://www.w3.org/Graphics/SVG/1.1/DTD/svg11.dtd"><svg class="icon" width="200px" height="200.00px" viewBox="0 0 1024 1024" version="1.1" xmlns="http://www.w3.org/2000/svg"><path fill="#333333" d="M812 892H212c-71.68 0-130-58.32-130-130V262c0-71.68 58.32-130 130-130h600c71.68 0 130 58.32 130 130v500c0 71.68-58.32 130-130 130zM212 192c-38.59 0-70 31.41-70 70v500c0 38.59 31.41 70 70 70h600c38.59 0 70-31.41 70-70V262c0-38.59-31.41-70-70-70H212z"  /><path fill="#333333" d="M310 741.38H194c-1.1 0-2-0.9-2-2v-116c0-1.1 0.9-2 2-2h116c1.1 0 2 0.9 2 2v116c0 1.1-0.9 2-2 2zM912 292H112c-16.57 0-30-13.43-30-30s13.43-30 30-30h800c16.56 0 30 13.43 30 30s-13.44 30-30 30zM912 392H112c-16.57 0-30-13.43-30-30s13.43-30 30-30h800c16.56 0 30 13.43 30 30s-13.44 30-30 30zM507.16 767.78l-61.25-156.41c-0.73-2.91-1.09-6.19-1.09-9.84 0.72-12.38 7.66-19.32 20.78-20.78 8.02 0.74 14.22 5.47 18.59 14.22l43.75 115.94 42.66-115.94c5.1-9.47 11.66-14.22 19.69-14.22 13.12 1.46 20.41 8.4 21.88 20.78-0.73 3.65-1.46 6.93-2.19 9.84l-61.25 156.41c-5.11 9.49-12.03 14.22-20.78 14.22-10.22 0-17.15-4.73-20.79-14.22zM623.1 762.31V602.62c0-13.85 6.92-21.13 20.78-21.88 13.12 0.74 20.05 8.03 20.78 21.88v159.69C663.93 775.44 657 782 643.88 782c-13.86 0-20.78-6.56-20.78-19.69zM689.82 762.31v-157.5c0-13.85 6.92-21.13 20.78-21.88h50.31c44.47 2.93 68.17 25.16 71.09 66.72-2.92 41.56-26.25 63.81-70 66.72h-30.62v45.94c-0.73 13.12-7.66 19.69-20.78 19.69-13.86 0-20.78-6.56-20.78-19.69z m41.56-142.19v59.06h28.44c17.5-0.72 26.97-10.57 28.44-29.53-1.46-18.22-10.94-28.07-28.44-29.53h-28.44z"  /></svg>