<?xml version="1.0" standalone="no"?><!DOCTYPE svg PUBLIC "-//W3C//DTD SVG 1.1//EN" "http://www.w3.org/Graphics/SVG/1.1/DTD/svg11.dtd"><svg class="icon" width="200px" height="200.00px" viewBox="0 0 1024 1024" version="1.1" xmlns="http://www.w3.org/2000/svg"><path fill="#333333" d="M876.231388 627.104645c-19.19904 21.246938-254.707265 250.777861-254.707264 250.777861s-30.321684 18.40548-63.062447-12.671367C541.041748 848.687166 253.171341 551.294035 253.171341 551.294035s-15.653617-15.781611-15.653617-62.716864v-208.245588a48.189591 48.189591 0 0 1 11.749813-31.345632 52.080596 52.080596 0 0 1 35.211039-11.59622h211.355832s24.113994-0.153592 31.320034 0a61.283336 61.283336 0 0 1 43.428229 19.429428l301.00255 302.333683s34.852657 34.558272 4.633368 67.951803zM347.118644 300.170591a47.088846 47.088846 0 1 0 46.960852 47.088846 47.024849 47.024849 0 0 0-46.960852-47.088846z" /></svg>