<?xml version="1.0" standalone="no"?><!DOCTYPE svg PUBLIC "-//W3C//DTD SVG 1.1//EN" "http://www.w3.org/Graphics/SVG/1.1/DTD/svg11.dtd"><svg class="icon" width="200px" height="200.00px" viewBox="0 0 1024 1024" version="1.1" xmlns="http://www.w3.org/2000/svg"><path fill="#333333" d="M906.45 752.02L300.79 107.99c-11.73-12.47-31.35-13.07-43.81-1.34l-131.9 124.03c-6 5.63-9.5 13.41-9.75 21.63-0.25 8.21 2.77 16.2 8.4 22.19L729.4 918.54a31.02 31.02 0 0 0 21.63 9.75c0.32 0.01 0.64 0.01 0.95 0.01 7.88 0 15.48-3 21.23-8.42L905.1 795.84c12.48-11.73 13.08-31.34 1.35-43.82zM753.33 853.48L190.13 254.6l86.73-81.56 27.91 29.68-29.49 29.49c-13.71 13.71-13.71 35.96 0 49.67 6.86 6.86 15.85 10.29 24.84 10.29s17.98-3.43 24.84-10.28l27.97-27.96 44.98 47.83-34.49 34.49c-13.71 13.71-13.71 35.96 0 49.67 6.86 6.86 15.85 10.28 24.84 10.28s17.98-3.43 24.84-10.29l32.96-32.96 57.98 61.66-23.18 23.18c-13.71 13.71-13.71 35.96 0 49.67 6.86 6.86 15.85 10.28 24.84 10.28s17.98-3.43 24.84-10.29l21.65-21.65 57.2 60.83-23.31 23.31c-13.71 13.71-13.71 35.96 0 49.67 6.86 6.86 15.85 10.28 24.84 10.28s17.98-3.43 24.84-10.29l21.78-21.78 66.24 70.43-24.17 24.17c-13.71 13.71-13.71 35.96 0 49.67 6.86 6.86 15.85 10.29 24.84 10.29s17.98-3.43 24.84-10.28l22.64-22.64 68.15 72.47-86.75 81.55zM412.45 655.97l-154.2 154.94c-18.34 3.65-44.11 8.51-66.9 12.74 4.19-20.19 9.09-43.83 13.64-66.09L361.5 600.3c13.69-13.75 13.64-35.99-0.11-49.67-13.74-13.68-35.98-13.64-49.67 0.12L147.77 715.47a35.032 35.032 0 0 0-9.53 17.79c-11.44 56.33-26.34 127.13-26.35 127.16a35.092 35.092 0 0 0 9.19 31.72 35.086 35.086 0 0 0 25.18 10.64c2.08 0 4.18-0.19 6.27-0.56 3.81-0.69 93.47-16.97 130.26-24.6 6.73-1.4 12.91-4.74 17.77-9.61l161.7-162.47c13.68-13.75 13.63-35.99-0.12-49.67s-36-13.65-49.69 0.1zM597.96 354.25l72.63-69.68 54.66 54.66-70.95 71.29c-13.69 13.75-13.64 35.99 0.11 49.67 6.85 6.82 15.81 10.23 24.78 10.23 9.01 0 18.03-3.45 24.89-10.34L833.26 330.3c20.33-20.33 31.52-47.44 31.52-76.33s-11.19-56-31.52-76.33-47.44-31.52-76.33-31.52-56 11.2-75.8 31.02l-131.8 126.43c-14 13.43-14.47 35.66-1.03 49.66 13.42 13.98 35.66 14.46 49.66 1.02z m158.97-137.89c10.13 0 19.59 3.89 26.65 10.95 7.06 7.06 10.96 16.52 10.96 26.65s-3.89 19.59-11.01 26.71l-14.55 14.62-42.6-42.6c-0.09-0.58-0.05-1.15-0.18-1.73-0.36-1.97-0.98-3.95-1.7-5.74-0.81-1.88-1.79-3.68-2.87-5.38-0.58-0.85-1.29-1.59-1.93-2.38l10.58-10.15c7.07-7.07 16.53-10.95 26.65-10.95z"  /></svg>