<?xml version="1.0" standalone="no"?><!DOCTYPE svg PUBLIC "-//W3C//DTD SVG 1.1//EN" "http://www.w3.org/Graphics/SVG/1.1/DTD/svg11.dtd"><svg class="icon" width="200px" height="200.00px" viewBox="0 0 1024 1024" version="1.1" xmlns="http://www.w3.org/2000/svg"><path fill="#333333" d="M853.333333 892.842667v-125.610667a424.362667 424.362667 0 0 0 0-510.464V131.157333a510.250667 510.250667 0 0 1 0 761.685334z m-128-136.234667v-117.76a209.877333 209.877333 0 0 0 0-253.696v-117.76a297.728 297.728 0 0 1 0 489.216zM554.666667 1024l-298.666667-213.333333a82.944 82.944 0 0 0-85.333333 0H85.333333a85.333333 85.333333 0 0 1-85.333333-85.333334V298.666667a85.333333 85.333333 0 0 1 85.333333-85.333334h85.333334a82.944 82.944 0 0 0 85.333333 0l298.666667-213.333333a85.333333 85.333333 0 0 1 85.333333 85.333333v853.333334a85.333333 85.333333 0 0 1-85.333333 85.333333zM170.666667 298.666667H85.333333v426.666666h85.333334V298.666667z m384-213.333334L256 298.666667v426.666666l298.666667 213.333334V85.333333z"  /></svg>