<?xml version="1.0" standalone="no"?><!DOCTYPE svg PUBLIC "-//W3C//DTD SVG 1.1//EN" "http://www.w3.org/Graphics/SVG/1.1/DTD/svg11.dtd"><svg class="icon" width="200px" height="200.00px" viewBox="0 0 1024 1024" version="1.1" xmlns="http://www.w3.org/2000/svg"><path fill="#333333" d="M644.266667 524.8c-21.333333 21.333333-46.933333 38.4-76.8 46.933333l-12.8 25.6h-85.333334l-12.8-29.866666c-29.866667-8.533333-55.466667-25.6-76.8-46.933334l-29.866666 4.266667-42.666667-72.533333 21.333333-25.6c-8.533333-12.8-8.533333-25.6-8.533333-42.666667s0-29.866667 4.266667-46.933333l-17.066667-21.333334 42.666667-72.533333 29.866666 4.266667c21.333333-21.333333 46.933333-38.4 76.8-46.933334L469.333333 170.666667h85.333334l12.8 29.866666c29.866667 8.533333 55.466667 25.6 76.8 46.933334l29.866666-4.266667 42.666667 72.533333-21.333333 25.6c4.266667 12.8 4.266667 29.866667 4.266666 46.933334s0 29.866667-4.266666 46.933333l21.333333 25.6-42.666667 72.533333-29.866666-8.533333z m-4.266667 217.6V853.333333h-85.333333v-174.933333c119.466667-21.333333 213.333333-123.733333 213.333333-251.733333h85.333333c0 145.066667-89.6 264.533333-213.333333 315.733333z m-256 0c-123.733333-51.2-213.333333-174.933333-213.333333-315.733333h85.333333c0 128 93.866667 230.4 213.333333 251.733333V853.333333H384v-110.933333z m128-230.4c72.533333 0 128-55.466667 128-128s-55.466667-128-128-128-128 55.466667-128 128 55.466667 128 128 128z m0-85.333333c-25.6 0-42.666667-17.066667-42.666667-42.666667s17.066667-42.666667 42.666667-42.666667 42.666667 17.066667 42.666667 42.666667-17.066667 42.666667-42.666667 42.666667z"  /></svg>