<?xml version="1.0" standalone="no"?><!DOCTYPE svg PUBLIC "-//W3C//DTD SVG 1.1//EN" "http://www.w3.org/Graphics/SVG/1.1/DTD/svg11.dtd"><svg class="icon" width="200px" height="200.00px" viewBox="0 0 1024 1024" version="1.1" xmlns="http://www.w3.org/2000/svg"><path fill="#333333" d="M376.32 295.68c-10.24-10.24-25.6-10.24-35.84 0L204.8 431.36l-58.88-58.88c-10.24-10.24-25.6-10.24-35.84 0-10.24 10.24-10.24 25.6 0 35.84l76.8 76.8c5.12 5.12 11.52 7.68 17.92 7.68s12.8-2.56 17.92-7.68l153.6-153.6c10.24-10.24 10.24-25.6 0-35.84zM276.48 666.88L204.8 738.56l-58.88-58.88c-10.24-10.24-25.6-10.24-35.84 0-10.24 10.24-10.24 25.6 0 35.84l76.8 76.8c5.12 5.12 11.52 7.68 17.92 7.68s12.8-2.56 17.92-7.68l89.6-89.6c10.24-10.24 10.24-25.6 0-35.84-10.24-10.24-25.6-10.24-35.84 0zM907.52 688.64c-3.84-5.12-90.88-119.04-203.52-119.04s-199.68 113.92-203.52 119.04c-6.4 8.96-6.4 21.76 0 30.72 3.84 5.12 90.88 119.04 203.52 119.04s199.68-113.92 203.52-119.04c6.4-8.96 6.4-21.76 0-30.72zM704 787.2c-65.28 0-124.16-55.04-149.76-83.2 25.6-28.16 84.48-83.2 149.76-83.2s124.16 55.04 149.76 83.2c-25.6 28.16-84.48 83.2-149.76 83.2z"  /><path fill="#333333" d="M704 637.44c-37.12 0-66.56 29.44-66.56 66.56s29.44 66.56 66.56 66.56 66.56-29.44 66.56-66.56-29.44-66.56-66.56-66.56z m0 81.92c-8.96 0-15.36-6.4-15.36-15.36s6.4-15.36 15.36-15.36 15.36 6.4 15.36 15.36-6.4 15.36-15.36 15.36z"  /><path fill="#333333" d="M1024 704c0-154.88-110.08-284.16-256-313.6V217.6c0-84.48-61.44-153.6-138.24-153.6h-57.6c-10.24-37.12-40.96-64-78.08-64H272.64c-35.84 0-67.84 26.88-76.8 64h-57.6C61.44 64 0 133.12 0 217.6v652.8c0 84.48 61.44 153.6 138.24 153.6h570.88C883.2 1021.44 1024 879.36 1024 704zM272.64 51.2h221.44C510.72 51.2 524.8 67.84 524.8 89.6s-12.8 38.4-29.44 38.4H272.64C258.56 128 243.2 112.64 243.2 89.6s15.36-38.4 29.44-38.4zM138.24 972.8C90.88 972.8 51.2 926.72 51.2 870.4V217.6c0-56.32 39.68-102.4 87.04-102.4h57.6c10.24 37.12 40.96 64 76.8 64h222.72c37.12 0 67.84-26.88 76.8-64h57.6c47.36 0 87.04 47.36 87.04 102.4v166.4h-12.8c-176.64 0-320 143.36-320 320 0 112.64 58.88 211.2 147.2 268.8H138.24zM704 972.8c-148.48 0-268.8-120.32-268.8-268.8s120.32-268.8 268.8-268.8 268.8 120.32 268.8 268.8-120.32 268.8-268.8 268.8z"  /></svg>