<?xml version="1.0" standalone="no"?><!DOCTYPE svg PUBLIC "-//W3C//DTD SVG 1.1//EN" "http://www.w3.org/Graphics/SVG/1.1/DTD/svg11.dtd"><svg class="icon" width="200px" height="199.80px" viewBox="0 0 1025 1024" version="1.1" xmlns="http://www.w3.org/2000/svg"><path fill="#333333" d="M720.384001 599.449c-3.395 0-6.748 0.589-9.974 1.754l-191.785 69.693-0.393 0.16c-0.943 0.428-3.335 0.888-6.36 0.888-3.095 0-5.229-0.479-5.847-0.781l-0.262-0.128-191.701-69.665c-3.214-1.164-6.565-1.754-9.961-1.754-14.489 0-26.765 10.308-29.189 24.512-15.038 88.162-17.358 186.472-17.449 190.613-0.177 7.942 2.818 15.478 8.433 21.22 5.622 5.749 13.1 8.915 21.057 8.915l450.611 0c7.957 0 15.435-3.165 21.057-8.913 5.615-5.742 8.611-13.279 8.434-21.221-0.092-4.149-2.416-102.608-17.488-190.785C747.140001 609.756 734.866001 599.449 720.384001 599.449zM317.642001 785.891c1.532-30.564 4.5-73.466 10.177-116.756l157.569 57.262c7.926 2.865 17.102 4.379 26.539 4.379 9.473 0 18.717-1.522 26.754-4.408l157.989-57.414c5.698 43.407 8.67 86.357 10.203 116.937L317.642001 785.891zM997.954001 350.392 538.593001 183.504c-7.972-2.865-17.179-4.379-26.628-4.379-9.477 0-18.686 1.525-26.629 4.411L26.008001 350.379C9.962001 356.208-0.003999 369.144 1.0e-06 384.14c0.004 14.985 9.971 27.908 26.008 33.723L485.342001 584.72c7.944 2.875 17.141 4.394 26.596 4.394 9.474 0 18.71-1.523 26.724-4.409l395.882-143.799 0 150.581c0 13.297 10.235 24.114 22.816 24.114l10.931 0c12.581 0 22.817-10.817 22.817-24.114L991.108001 420.361l6.799-2.471c16.098-5.819 26.097-18.769 26.093-33.796C1023.997001 369.104 1014.013001 356.188 997.954001 350.392zM918.071001 384.12 518.579001 529.245l-2.77 1.006c-0.866 0.172-1.855 0.263-2.924 0.263-2.947 0-5.837-0.67-7.416-1.244L105.900001 384.122l399.569-145.138 0.325-0.13c0.615-0.25 3.091-0.717 6.292-0.717 2.593 0 4.959 0.31 6.444 0.834L918.071001 384.12zM962.838001 646.517c-21.034 0-38.147 17.111-38.147 38.142 0 21.047 17.113 38.169 38.147 38.169 21.043 0 38.163-17.122 38.163-38.169C1001.001001 663.627 983.881001 646.517 962.838001 646.517z" /></svg>