<?xml version="1.0" standalone="no"?><!DOCTYPE svg PUBLIC "-//W3C//DTD SVG 1.1//EN" "http://www.w3.org/Graphics/SVG/1.1/DTD/svg11.dtd"><svg class="icon" width="200px" height="200.00px" viewBox="0 0 1024 1024" version="1.1" xmlns="http://www.w3.org/2000/svg"><path fill="#333333" d="M782.4 595.2c-69.6 0-126.4-56.8-126.4-125.6C656 400 712.8 344 782.4 344c69.6 0 126.4 56.8 126.4 125.6s-56.8 125.6-126.4 125.6z m0-220c-52 0-94.4 42.4-94.4 93.6 0 52 42.4 93.6 94.4 93.6 52 0 94.4-42.4 94.4-93.6 0-51.2-42.4-93.6-94.4-93.6zM237.6 595.2c-69.6 0-126.4-56.8-126.4-125.6C111.2 400 168 344 237.6 344s126.4 56 126.4 124.8c0 69.6-56.8 126.4-126.4 126.4z m0-220c-52 0-94.4 42.4-94.4 93.6 0 52 42.4 93.6 94.4 93.6 52 0 94.4-42.4 94.4-93.6 0-51.2-42.4-93.6-94.4-93.6zM509.6 640c-69.6 0-126.4-56.8-126.4-125.6 0-69.6 56.8-125.6 126.4-125.6s126.4 56.8 126.4 125.6S579.2 640 509.6 640z m0-220c-52 0-94.4 42.4-94.4 93.6 0 52 42.4 93.6 94.4 93.6 52 0 94.4-42.4 94.4-93.6 0-52-42.4-93.6-94.4-93.6zM675.2 1020H344c-37.6 0-68-35.2-68-78.4 0-124 69.6-233.6 169.6-267.2 3.2-0.8 7.2-0.8 10.4 0 34.4 12 72 12 106.4 0 3.2-0.8 7.2-1.6 10.4 0 100 33.6 169.6 143.2 169.6 267.2 0.8 43.2-29.6 78.4-67.2 78.4z m-224-313.6c-84.8 31.2-143.2 127.2-143.2 235.2 0 25.6 16 46.4 36 46.4h331.2c20 0 36-20.8 36-46.4 0-108-58.4-204-143.2-235.2-37.6 12.8-78.4 12.8-116.8 0zM292.8 966.4H72c-37.6 0-68-35.2-68-78.4 0-124 69.6-233.6 169.6-267.2 3.2-0.8 7.2-0.8 10.4 0 34.4 12 72 12 106.4 0 3.2-0.8 7.2-1.6 10.4 0 44 14.4 83.2 44 112.8 85.6 2.4 3.2 3.2 8 3.2 12-0.8 4-3.2 8-6.4 10.4-62.4 44-101.6 125.6-101.6 212.8v8.8c0 8.8-7.2 16-16 16zM179.2 652.8C94.4 684 36 780 36 888c0 25.6 16 46.4 36 46.4h204.8c2.4-88.8 40-172 101.6-221.6-23.2-28-51.2-48-82.4-60-38.4 12-79.2 12-116.8 0zM948 966.4H727.2c-8.8 0-16-7.2-16-16v-8.8c0-88-39.2-169.6-101.6-212.8-3.2-2.4-5.6-6.4-6.4-10.4-0.8-4 0-8.8 3.2-12 30.4-40.8 68.8-70.4 112.8-85.6 3.2-0.8 7.2-0.8 10.4 0 34.4 12 72 12 106.4 0 3.2-0.8 7.2-1.6 10.4 0C945.6 654.4 1016 764 1016 888c0 43.2-30.4 78.4-68 78.4z m-204.8-32h204.8c20 0 36-20.8 36-46.4 0-108-58.4-204-143.2-235.2-38.4 12-78.4 12-116.8 0-31.2 11.2-59.2 32-82.4 60 61.6 49.6 99.2 132.8 101.6 221.6zM625.6 375.2c-3.2 0-5.6-0.8-8.8-2.4-5.6-4-8.8-10.4-7.2-17.6l17.6-73.6c-45.6-9.6-80-49.6-80-97.6V103.2C547.2 48.8 592 4 646.4 4h272.8c55.2 0 99.2 44.8 99.2 99.2v81.6c0 54.4-44.8 99.2-99.2 99.2h-176L635.2 371.2c-2.4 2.4-6.4 4-9.6 4z m21.6-339.2c-37.6 0-67.2 30.4-67.2 67.2v81.6c0 36.8 30.4 67.2 67.2 67.2 4.8 0 9.6 2.4 12.8 6.4 3.2 4 4 8.8 3.2 13.6l-11.2 44.8 75.2-60.8c3.2-2.4 6.4-3.2 10.4-3.2h183.2c37.6 0 67.2-30.4 67.2-67.2V103.2c0-36.8-30.4-67.2-67.2-67.2H647.2zM653.6 191.2c-23.2 0-41.6-18.4-41.6-41.6 0-23.2 18.4-41.6 41.6-41.6 23.2 0 41.6 18.4 41.6 41.6 0 23.2-18.4 41.6-41.6 41.6z m0-66.4c-14.4 0-25.6 11.2-25.6 25.6 0 14.4 11.2 25.6 25.6 25.6 14.4 0 25.6-11.2 25.6-25.6 0-14.4-11.2-25.6-25.6-25.6zM784 191.2c-23.2 0-41.6-18.4-41.6-41.6 0-23.2 18.4-41.6 41.6-41.6 23.2 0 41.6 18.4 41.6 41.6 0 23.2-19.2 41.6-41.6 41.6z m0-66.4c-14.4 0-25.6 11.2-25.6 25.6 0 14.4 11.2 25.6 25.6 25.6s25.6-11.2 25.6-25.6c0-14.4-12-25.6-25.6-25.6zM914.4 191.2c-23.2 0-41.6-18.4-41.6-41.6 0-23.2 18.4-41.6 41.6-41.6 23.2 0 41.6 18.4 41.6 41.6-0.8 23.2-19.2 41.6-41.6 41.6z m0-66.4c-14.4 0-25.6 11.2-25.6 25.6 0 14.4 11.2 25.6 25.6 25.6 14.4 0 25.6-11.2 25.6-25.6-0.8-14.4-12-25.6-25.6-25.6z" /></svg>