<?xml version="1.0" standalone="no"?><!DOCTYPE svg PUBLIC "-//W3C//DTD SVG 1.1//EN" "http://www.w3.org/Graphics/SVG/1.1/DTD/svg11.dtd"><svg class="icon" width="200px" height="200.00px" viewBox="0 0 1024 1024" version="1.1" xmlns="http://www.w3.org/2000/svg"><path d="M907 99.85a18 18 0 0 1 18 18v580a18 18 0 0 1-18 18H117a18 18 0 0 1-18-18v-580a18 18 0 0 1 18-18h790m0-2H117a20.06 20.06 0 0 0-20 20v580a20.06 20.06 0 0 0 20 20h790a20.06 20.06 0 0 0 20-20v-580a20.06 20.06 0 0 0-20-20z" fill="#0E6EC5" /><path d="M907 98.85H117a19 19 0 0 0-19 19v580a19 19 0 0 0 19 19h790a19 19 0 0 0 19-19v-580a19 19 0 0 0-19-19z m-10 575a14 14 0 0 1-14 14H141a14 14 0 0 1-14-14v-532a14 14 0 0 1 14-14h742a14 14 0 0 1 14 14z" fill="#01B0F1" /><path d="M256.7 877.15l509.95 0 0 48-509.95 0 0-48Z" fill="#01B0F1" /><path d="M742.77 878.15A22.9 22.9 0 0 1 765.65 901v0.24a22.9 22.9 0 0 1-22.88 22.88H280.58a22.9 22.9 0 0 1-22.88-22.88V901a22.9 22.9 0 0 1 22.88-22.88h462.19m0-2H280.58A25 25 0 0 0 255.7 901v0.24a25 25 0 0 0 24.88 24.88h462.19a25 25 0 0 0 24.88-24.88V901a25 25 0 0 0-24.88-24.88z" fill="#0E6EC5" /><path d="M763.18 265.62H649.54l0.25 0.7a186.81 186.81 0 0 1 6.21 22.45h107.18a11.57 11.57 0 0 0 0-23.14zM763.18 335.87H660c-0.09 2.48-0.21 5-0.38 7.45q-0.57 8-1.53 15.69h105.09a11.6 11.6 0 0 0 11.57-11.57 11.6 11.6 0 0 0-11.57-11.57zM250.93 272.71a11.48 11.48 0 0 0 0 23h87.73a224 224 0 0 1 5.78-23zM384.37 202.79H250.93a11.51 11.51 0 0 0-11.48 11.48 11.51 11.51 0 0 0 11.48 11.48h115.23a157.74 157.74 0 0 1 10.09-13.81q3.91-4.79 8.12-9.15zM773.07 202.79h-158q4.27 4 8.3 8.3a172.71 172.71 0 0 1 12.19 14.65h137.51a11.51 11.51 0 0 0 11.48-11.48 11.51 11.51 0 0 0-11.48-11.47zM333.94 345.24v-2.86h-83a11.51 11.51 0 0 0-11.48 11.48 11.51 11.51 0 0 0 11.48 11.48h77l6.2-10.73c-0.14-3.11-0.2-6.26-0.2-9.37zM250.93 482a11.48 11.48 0 1 0 0 23h91.85v-23zM773.07 482H621.34a149.78 149.78 0 0 1-16.62 16.36v6.59h168.35a11.48 11.48 0 1 0 0-23zM301 412.05h-50.07a11.51 11.51 0 0 0-11.48 11.48A11.51 11.51 0 0 0 250.93 435h66l-10.47-6a13.25 13.25 0 0 1-5.46-16.95zM773.07 412.05H659a224.43 224.43 0 0 1-8.49 23h122.56a11.51 11.51 0 0 0 11.48-11.48 11.51 11.51 0 0 0-11.48-11.52zM773.07 551.65H604.73v23h168.34a11.48 11.48 0 0 0 0-23zM250.93 551.65a11.48 11.48 0 0 0 0 23h162.93v-23z" fill="#FFBE00" /><path d="M548.35 265.84H462.1a4.53 4.53 0 0 0-4.52 4.52V409a4.53 4.53 0 0 0 4.52 4.52h86.25a4.53 4.53 0 0 0 4.52-4.52V270.36a4.53 4.53 0 0 0-4.52-4.52zM543.08 403a0.65 0.65 0 0 1-0.65 0.65H468a0.65 0.65 0 0 1-0.65-0.65V276.29a0.65 0.65 0 0 1 0.65-0.65h74.4a0.65 0.65 0 0 1 0.65 0.65z" fill="#0FCE9A" /><path d="M480.18 255.67l50.09 0 0 16.95-50.09 0 0-16.95Z" fill="#0FCE9A" /><path d="M532.24 385.36h-54.3a4.63 4.63 0 0 0-4.61 4.61 4.63 4.63 0 0 0 4.61 4.61h54.3a4.63 4.63 0 0 0 4.61-4.61 4.63 4.63 0 0 0-4.61-4.61zM532.24 371.63h-54.3a4.61 4.61 0 0 0 0 9.22h54.3a4.61 4.61 0 0 0 0-9.22zM473.33 362.51a4.63 4.63 0 0 0 4.61 4.61h10.24l5.17-9.22h-15.41a4.63 4.63 0 0 0-4.61 4.61zM532.24 357.9h-30.81l-10.09 9.22h40.9a4.61 4.61 0 0 0 0-9.22zM532.24 344.16h-15.79l-0.82 0.75h16.61a3.86 3.86 0 0 1 0 7.72h-25.05l-0.82 0.75h25.88a4.61 4.61 0 1 0 0-9.22zM473.33 348.77a4.62 4.62 0 0 0 4.61 4.61h17.95l0.42-0.75h-18.37a3.86 3.86 0 0 1 0-7.72h22.69l0.42-0.75h-23.11a4.63 4.63 0 0 0-4.61 4.61zM532.24 330.43h-17.05l-0.33 0.75h17.38a3.86 3.86 0 0 1 0 7.72h-20.72l-0.34 0.75h21.06a4.61 4.61 0 0 0 0-9.22zM473.33 335a4.63 4.63 0 0 0 4.61 4.61h18.18l0.63-0.75h-18.8a3.86 3.86 0 0 1 0-7.72h25.27l0.63-0.75h-25.9a4.63 4.63 0 0 0-4.62 4.61zM473.33 321.31a4.63 4.63 0 0 0 4.61 4.61h29.68l0.63-0.75h-30.31a3.86 3.86 0 0 1 0-7.72h36.78l0.63-0.75h-37.41a4.62 4.62 0 0 0-4.61 4.61zM532.24 316.7h-11.1l-0.33 0.75h11.43a3.86 3.86 0 0 1 0 7.72h-14.77l-0.33 0.75h15.1a4.61 4.61 0 1 0 0-9.22zM532.24 303h-54.3a4.61 4.61 0 0 0 0 9.22h41.2l0.63-0.75h-41.83a3.86 3.86 0 0 1 0-7.72h54.3a3.86 3.86 0 0 1 0 7.72h-8.82l-0.33 0.75h9.15a4.61 4.61 0 0 0 0-9.22zM532.24 289.23h-54.3a4.61 4.61 0 0 0 0 9.22h54.3a4.61 4.61 0 0 0 0-9.22z m0 8.47h-54.3a3.86 3.86 0 0 1 0-7.72h54.3a3.86 3.86 0 0 1 0 7.72z" fill="#0E6EC5" /><path d="M497.68 338.95l5.76 2.5-15.64 27.89 29.06-26.57-6.59-2.89 14.31-33.02-26.9 32.09z" fill="#FFBE00" /><path d="M497.52 158.29c-104.56 0-162.59 82.39-162.59 187q0 4.82 0.21 9.6l-32.64 56.49a12.28 12.28 0 0 0 4.5 16.72l36.79 21.24v87.72A12.28 12.28 0 0 0 356 549.3h58.84v83.92a15.9 15.9 0 0 0 15.86 15.86h157.18a15.9 15.9 0 0 0 15.86-15.86V497.88c39.42-32.89 61.21-86.35 65.64-148.18 7.47-104.29-67.3-191.41-171.86-191.41z m150.3 189.86c-2.08 29-8.12 55.17-18 77.89s-23.32 41.36-40 55.24l-7.77 6.48v139.71H436.46v-99.78h-71.08v-90.83l-10.8-6.24-28.68-16.55 28-48.42 3.15-5.46-0.28-6.3c-0.13-2.88-0.19-5.79-0.19-8.65 0-23.93 3.26-46.42 9.7-66.82 6.33-20.08 15.58-37.63 27.49-52.17a122.45 122.45 0 0 1 43.38-33.85c17.85-8.29 38.17-12.5 60.41-12.5 42.51 0 81.32 16.55 109.29 46.59a152 152 0 0 1 32.45 54.3 168.11 168.11 0 0 1 8.52 67.36z" fill="#0FCE9A" /><path d="M791.5 701.16m-130 0a130 130 0 1 0 260 0 130 130 0 1 0-260 0Z" fill="#0E6EC5" /><path d="M699.47 707H694v11a6.2 6.2 0 0 1-0.85 3.56 2.55 2.55 0 0 1-4.33 0A6.19 6.19 0 0 1 688 718v-29.77a5.86 5.86 0 0 1 0.91-3.69 3.53 3.53 0 0 1 2.89-1.11h7.71a15.74 15.74 0 0 1 5.26 0.69 7.5 7.5 0 0 1 3.15 2.19 10.31 10.31 0 0 1 2 3.75 16.78 16.78 0 0 1 0.69 5q0 5.91-2.79 9t-8.35 2.94zM698 689.31h-4v11.82h4a9.45 9.45 0 0 0 3.55-0.58 4.28 4.28 0 0 0 2.17-1.9 8.22 8.22 0 0 0-0.4-7.63q-1.32-1.71-5.32-1.71zM735.14 689.47H721.6V699h12.47a2.54 2.54 0 0 1 2.05 0.8 3.18 3.18 0 0 1 0.68 2.12 3.33 3.33 0 0 1-0.67 2.15 2.49 2.49 0 0 1-2.06 0.83H721.6v11h14a2.63 2.63 0 0 1 2.13 0.86 3.44 3.44 0 0 1 0.72 2.28 3.35 3.35 0 0 1-0.72 2.23 2.63 2.63 0 0 1-2.13 0.86h-16.32a3.32 3.32 0 0 1-2.82-1.13 6.14 6.14 0 0 1-0.86-3.67v-29.1a8.29 8.29 0 0 1 0.38-2.76 2.85 2.85 0 0 1 1.2-1.56 4.05 4.05 0 0 1 2.09-0.49h15.86a2.63 2.63 0 0 1 2.13 0.83 3.27 3.27 0 0 1 0.7 2.18 3.31 3.31 0 0 1-0.7 2.2 2.63 2.63 0 0 1-2.12 0.84zM751.31 705.57h-2.1V718a6.27 6.27 0 0 1-0.83 3.61 2.55 2.55 0 0 1-2.16 1.16 2.51 2.51 0 0 1-2.23-1.21 6.57 6.57 0 0 1-0.79-3.56v-29.77a6.08 6.08 0 0 1 0.87-3.67 3.32 3.32 0 0 1 2.81-1.14h9.77a22.84 22.84 0 0 1 3.46 0.23 7.17 7.17 0 0 1 2.59 0.91 7.76 7.76 0 0 1 2.47 2.19 10.27 10.27 0 0 1 1.63 3.31 14.06 14.06 0 0 1 0.56 4 11.54 11.54 0 0 1-1.87 6.91 10.12 10.12 0 0 1-5.68 3.67 12.19 12.19 0 0 1 3.06 3.27 34.09 34.09 0 0 1 2.6 4.6 38.74 38.74 0 0 1 1.78 4.41 10.79 10.79 0 0 1 0.64 2.7 3.37 3.37 0 0 1-0.37 1.52 3 3 0 0 1-1 1.19 2.62 2.62 0 0 1-1.5 0.44 2.44 2.44 0 0 1-1.7-0.62 5.5 5.5 0 0 1-1.18-1.57q-0.5-0.95-1.35-2.8l-2.41-5.22a30.29 30.29 0 0 0-2.32-4.38 6.17 6.17 0 0 0-2.07-2.06 5.66 5.66 0 0 0-2.68-0.55z m3.44-16.25h-5.54v10.63h5.38a11.75 11.75 0 0 0 3.64-0.49 4.18 4.18 0 0 0 2.26-1.66 5.79 5.79 0 0 0 0.78-3.23 6.15 6.15 0 0 0-0.63-2.84 4.2 4.2 0 0 0-1.74-1.83 9.81 9.81 0 0 0-4.15-0.59zM797.77 709.89a13 13 0 0 1-0.7 4 15.26 15.26 0 0 1-2.2 4.22 11.59 11.59 0 0 1-3.82 3.36 11 11 0 0 1-5.42 1.29 14.75 14.75 0 0 1-4.27-0.58 10.57 10.57 0 0 1-3.49-1.81 13.31 13.31 0 0 1-2.88-3.23 20.61 20.61 0 0 1-2-4.08 26 26 0 0 1-1.24-4.82 34 34 0 0 1-0.41-5.44 30.83 30.83 0 0 1 1-8.36 19.37 19.37 0 0 1 3-6.32 13.46 13.46 0 0 1 4.55-4 11.79 11.79 0 0 1 5.56-1.37 11.31 11.31 0 0 1 6.41 1.87 13 13 0 0 1 4.31 4.63 11 11 0 0 1 1.5 5.21 4 4 0 0 1-0.73 2.37 2.12 2.12 0 0 1-1.76 1 2.09 2.09 0 0 1-1.73-0.71 10.31 10.31 0 0 1-1.28-2.45 11.56 11.56 0 0 0-2.76-4.3 5.65 5.65 0 0 0-3.92-1.42q-3.7 0-5.9 3.67t-2.2 10.42a24.69 24.69 0 0 0 1 7.51 9.4 9.4 0 0 0 2.75 4.47 6.32 6.32 0 0 0 4.17 1.48 6.17 6.17 0 0 0 4.38-1.68 10.45 10.45 0 0 0 2.7-4.92 9.5 9.5 0 0 1 1-2.49 2 2 0 0 1 1.82-1 2.29 2.29 0 0 1 1.84 1 3.8 3.8 0 0 1 0.72 2.48zM822.72 689.47h-13.54V699h12.47a2.54 2.54 0 0 1 2.05 0.8 3.18 3.18 0 0 1 0.68 2.12 3.33 3.33 0 0 1-0.67 2.15 2.49 2.49 0 0 1-2.06 0.83h-12.47v11h14a2.63 2.63 0 0 1 2.13 0.86A3.44 3.44 0 0 1 826 719a3.35 3.35 0 0 1-0.72 2.23 2.63 2.63 0 0 1-2.13 0.86h-16.29A3.32 3.32 0 0 1 804 721a6.14 6.14 0 0 1-0.86-3.67v-29.1a8.29 8.29 0 0 1 0.38-2.76 2.85 2.85 0 0 1 1.2-1.56 4.05 4.05 0 0 1 2.09-0.49h15.86a2.63 2.63 0 0 1 2.13 0.83 3.27 3.27 0 0 1 0.7 2.18 3.31 3.31 0 0 1-0.7 2.2 2.63 2.63 0 0 1-2.08 0.84zM831.06 718v-30.48a6.23 6.23 0 0 1 0.83-3.56 2.51 2.51 0 0 1 2.14-1.19 2.58 2.58 0 0 1 2.2 1.17 6.17 6.17 0 0 1 0.84 3.57V718a6.24 6.24 0 0 1-0.84 3.59 2.57 2.57 0 0 1-2.2 1.19 2.52 2.52 0 0 1-2.13-1.2 6.25 6.25 0 0 1-0.84-3.58zM848.18 687.91l6.72 25.94 6.74-26.12q0.53-2.06 0.79-2.86a3.85 3.85 0 0 1 0.87-1.45 2.17 2.17 0 0 1 1.66-0.65 2.31 2.31 0 0 1 1.43 0.5 3.4 3.4 0 0 1 1 1.33 4.05 4.05 0 0 1 0.37 1.68 7.08 7.08 0 0 1-0.12 1.25q-0.12 0.67-0.3 1.32t-0.36 1.33l-7.18 25.28q-0.38 1.45-0.77 2.76a13.27 13.27 0 0 1-0.89 2.3 4.64 4.64 0 0 1-1.35 1.62 3.31 3.31 0 0 1-2.05 0.63 3.36 3.36 0 0 1-2.05-0.62 4.54 4.54 0 0 1-1.36-1.64 13.7 13.7 0 0 1-0.9-2.31q-0.38-1.29-0.77-2.74l-7.06-25.07q-0.18-0.68-0.37-1.35a13 13 0 0 1-0.32-1.42 7.87 7.87 0 0 1-0.13-1.29 4 4 0 0 1 0.83-2.45 2.51 2.51 0 0 1 2.08-1.11 2.25 2.25 0 0 1 2.17 1.23 19.14 19.14 0 0 1 1.32 3.91zM891.84 689.47h-13.53V699h12.47a2.54 2.54 0 0 1 2.05 0.8 3.18 3.18 0 0 1 0.68 2.12 3.33 3.33 0 0 1-0.67 2.15 2.49 2.49 0 0 1-2.06 0.83h-12.47v11h14a2.63 2.63 0 0 1 2.13 0.86 3.44 3.44 0 0 1 0.72 2.28 3.35 3.35 0 0 1-0.72 2.23 2.63 2.63 0 0 1-2.13 0.86H876a3.32 3.32 0 0 1-2.82-1.13 6.14 6.14 0 0 1-0.86-3.67v-29.1a8.29 8.29 0 0 1 0.38-2.76 2.85 2.85 0 0 1 1.2-1.56 4.05 4.05 0 0 1 2.09-0.49h15.86a2.63 2.63 0 0 1 2.13 0.83 3.27 3.27 0 0 1 0.7 2.18 3.31 3.31 0 0 1-0.7 2.2 2.63 2.63 0 0 1-2.14 0.84z" fill="#FFFFFF" /></svg>